# xmcd CD database file
# Copyright (C) 1993-1996 Ti Kan
#
# Track frame offsets:
#  150
#  16925
#  31090
#  45329
#  59759
#  75199
#  89301
#  105634
#  119797
#  132895
#  145884
#  160092
#
# Disc length: 2457 seconds
#
# Revision: 2
# Processed by: cddbd v1.5.2PL0 Copyright (c) Steve Scherf et al.
# Submitted via: Advanced CD Ripper Pro 2.0
#
DISCID=9209970c
DTITLE=Ilona - Desde Mi ventana
DYEAR=2005
DGENRE=Latin
TTITLE0=De Regreso
TTITLE1=En la Zona
TTITLE2=Voy a Verte
TTITLE3=De este lado
TTITLE4=Vuelve
TTITLE5=Buscando Un Final
TTITLE6=Hoy
TTITLE7=Un dia Mas
TTITLE8=Desde mi ventana
TTITLE9=Aqui
TTITLE10=En la Zona (a Duo Leon Gieco)
TTITLE11=One Love
EXTD=
EXTT0=
EXTT1=
EXTT2=
EXTT3=
EXTT4=
EXTT5=
EXTT6=
EXTT7=
EXTT8=
EXTT9=
EXTT10=
EXTT11=
PLAYORDER=
